<?xml version="1.0" encoding="UTF-8"?>
<svg id="Layer_1" data-name="Layer 1" xmlns="http://www.w3.org/2000/svg" viewBox="0 0 363.29 224.58">
  <path d="m.09,140.38C14.64,93.76,46.35,52.79,86.83,25.66,110.37,10.4,138.38-1.23,167.09,1.95c29.48,3.49,46.52,25.97,44.59,55.17-4.95,55.11-67.38,132.09-115.86,157.1-22.79,12.53-59.16,18.61-71.52-10.94-11.01-29.28,6.87-68.02,22.25-92.81C84.07,51.09,147.71,5.05,219.3,1.56c42.35-2.4,88.36,6.81,119.67,37.45,15.89,15.61,25.16,37.94,24.25,60.27-.65,21.94-9.33,43-22.18,60.51-25.43,34.75-66.92,55.36-109.22,59.68-13.86,1.6-27.84.97-41.72.78-16.12-.21-32.41-.69-48.6-1.07,0,0,4.41-5.84,4.41-5.84,47.47-62.31,93.94-125.42,142.92-186.57,3.76-4.71,7.54-9.54,12.06-13.94C310.29,3.32,322.69-.51,335.8.05c3.37.2,3.52,5.2-.11,5.31-5.8-.09-11.58.49-16.86,2.38-11.2,3.92-18.3,13.51-25.46,22.62-48.45,61.46-94.49,124.87-141.46,187.48,0,0-2.93-6-2.93-6,19.73-.1,41.81-.57,61.69-.79,58.65-.06,121.51-33.87,137.58-93.11C366.84,41.7,282.58,9.61,220.13,14.58c-40.03,2.2-78.39,18.13-109.43,43.28-31,24.93-57.22,57.49-71.16,94.92-11.39,31.1-11.2,68.57,32.95,58.06,49.54-14.15,102.92-79.44,121.99-126.13,7.16-17.32,11.85-38.27,1.95-55.32C178.37.17,134.63,9.62,108.58,22.35c-36.44,17.75-66.16,47.88-86.64,82.64-6.73,11.62-12.71,23.97-16.72,36.77-.89,3.29-5.98,2.16-5.13-1.39H.09Z" fill="#010101" stroke-width="0"/>
</svg>